<svg width="302" height="261" viewBox="0 0 302 261" fill="none" xmlns="http://www.w3.org/2000/svg">
<g filter="url(#filter0_d)">
<path d="M139.461 125.36C139.461 125.36 46.5024 121.403 36.1966 192.801C25.8909 264.2 167.41 247.669 167.41 247.669C167.41 247.669 259.874 245.443 250.846 191.482C241.199 133.564 154.26 124.866 139.461 125.36Z" fill="#E3BAD7"/>
<path d="M116.582 248.618C108.255 248.082 100.464 247.257 93.2083 246.021C63.1978 241.033 42.9573 229.696 37.5158 208.796C36.5677 205.086 36.073 201.046 36.073 196.718C36.073 186.206 38.9998 176.271 44.4001 167.326C59.4878 142.468 94.0328 125.36 139.461 125.36C102.813 125.36 71.4425 143.993 58.4984 170.417C54.4173 178.744 52.1913 187.855 52.1913 197.377C52.1913 200.964 52.3974 204.344 52.8096 207.518C56.396 234.602 75.7297 245.897 116.582 248.618Z" fill="#BE428D"/>
<path d="M120.333 248.824C121.982 248.906 123.672 248.989 125.362 249.03C123.672 248.989 121.982 248.906 120.333 248.824Z" fill="#BE428D"/>
<path d="M125.527 249.071C127.753 249.154 130.021 249.195 132.329 249.236C130.021 249.195 127.753 249.154 125.527 249.071Z" fill="#BE428D"/>
<path d="M132.329 249.236C133.648 249.236 135.009 249.277 136.328 249.277C135.833 249.277 135.297 249.277 134.802 249.277C133.978 249.277 133.154 249.236 132.329 249.236Z" fill="#BE428D"/>
<path d="M251.258 197.377C251.258 237.158 201.213 249.277 139.461 249.277C187.651 249.277 226.73 237.158 226.73 197.377C226.73 157.597 187.651 125.36 139.461 125.36C201.213 125.36 251.258 157.597 251.258 197.377Z" fill="#BE428D"/>
<path d="M93.2083 246.021C63.1978 241.033 42.9573 229.696 37.5158 208.796C36.5677 205.086 36.073 201.046 36.073 196.718C36.073 186.206 38.9998 176.271 44.4001 167.326C59.4878 142.468 94.0328 125.36 139.461 125.36C102.813 125.36 71.4425 143.993 58.4984 170.417C54.4173 178.744 52.1913 187.855 52.1913 197.377C52.1913 200.964 52.3561 204.344 52.7272 207.518C55.1593 229.408 66.4132 240.95 93.2083 246.021Z" stroke="black" stroke-width="7" stroke-miterlimit="10"/>
<path d="M132.329 249.236C133.648 249.236 135.009 249.277 136.328 249.277C135.833 249.277 135.297 249.277 134.802 249.277C117.983 249.112 104.256 248.123 93.2083 246.062C100.464 247.257 108.255 248.123 116.582 248.659C116.994 248.7 117.406 248.7 117.818 248.741C118.519 248.782 119.22 248.824 119.88 248.865C120.003 248.865 120.168 248.865 120.292 248.865C121.941 248.947 123.631 249.03 125.321 249.071C125.362 249.071 125.445 249.071 125.486 249.071C127.794 249.153 130.062 249.195 132.329 249.236Z" stroke="black" stroke-width="7" stroke-miterlimit="10"/>
<path d="M251.258 197.377C251.258 237.158 198.08 249.277 136.369 249.277C184.559 249.277 226.73 237.158 226.73 197.377C226.73 157.597 187.651 125.36 139.461 125.36C201.213 125.36 251.258 157.597 251.258 197.377Z" stroke="black" stroke-width="7" stroke-miterlimit="10"/>
<path d="M112.336 189.833C112.336 197.789 102.566 204.261 90.5287 204.261C78.4916 204.261 68.7217 197.831 68.7217 189.833C68.7217 189.215 68.7629 188.638 68.8866 188.061C70.2057 195.151 79.3985 200.675 90.5287 200.675C101.659 200.675 110.852 195.151 112.171 188.061C112.253 188.638 112.336 189.215 112.336 189.833Z" fill="#BE428D" stroke="black" stroke-width="7" stroke-miterlimit="10"/>
<path d="M180.684 193.296C180.684 201.252 170.914 207.724 158.877 207.724C146.84 207.724 137.07 201.293 137.07 193.296C137.07 192.678 137.111 192.101 137.235 191.524C138.554 198.614 147.747 204.138 158.877 204.138C170.007 204.138 179.2 198.614 180.519 191.524C180.643 192.101 180.684 192.678 180.684 193.296Z" fill="#BE428D" stroke="black" stroke-width="7" stroke-miterlimit="10"/>
<path d="M36.073 196.718C36.073 201.046 36.5677 205.086 37.5158 208.796C20.9441 207.724 8 198.82 8 188.061C8 176.56 22.7579 167.202 40.9373 167.202C42.0916 167.202 43.287 167.243 44.4001 167.326C38.9998 176.271 36.073 186.206 36.073 196.718Z" fill="#C96DA5" stroke="black" stroke-width="7" stroke-miterlimit="10"/>
<path d="M211.065 26.4661C185.795 40.2759 166.956 46.3769 157.393 48.8503C152.899 50.0045 148.241 50.2106 143.665 49.4686C139.708 48.8091 134.967 47.9022 132.164 46.9128C87.3546 31.1243 77.2961 133.028 76.7602 138.634C76.7602 138.799 76.6778 138.923 76.5541 139.005L58.3335 151.249C57.9625 151.496 57.509 151.207 57.5502 150.795C58.622 139.789 68.6805 46.1708 105.452 19.9941C133.648 -0.081605 150.137 32.9381 210.777 25.5592C211.313 25.4355 211.56 26.1775 211.065 26.4661Z" fill="#C96DA5" stroke="black" stroke-width="7" stroke-miterlimit="10"/>
<path d="M279.29 4.8239C287.988 1.19626 296.603 10.1829 293.264 19.3757C279.496 57.301 256.864 131.255 266.098 186.412C266.304 187.566 266.51 188.72 266.717 189.833C267.005 191.4 267.046 193.008 266.717 194.533C264.532 204.633 251.505 212.341 235.799 212.341C218.527 212.341 204.552 203.025 204.552 191.482C204.552 179.981 218.527 170.623 235.799 170.623C241.323 170.623 243.343 170.541 247.836 172.231C247.836 172.231 258.637 56.93 279.084 25.353C279.537 24.6522 278.877 23.7041 278.094 24.0339C265.686 28.9394 215.724 48.3968 174.377 50.0869C173.964 50.0869 173.841 49.5098 174.253 49.3449C182.992 45.9646 194.329 42.1309 204.305 37.0604C213.209 32.5259 220.876 26.3836 225.988 23.6629C237.819 21.4781 261.358 12.2853 279.29 4.8239Z" fill="#C96DA5" stroke="black" stroke-width="7" stroke-miterlimit="10"/>
<path d="M93.8266 90.0321C93.6205 90.2794 93.2495 90.1146 93.2907 89.7848C93.7442 85.2502 97.1245 68.0602 122.848 68.6373C147.334 69.1732 160.855 62.495 164.813 60.1453C165.101 59.9804 165.431 60.3102 165.225 60.5988C162.175 64.8448 150.962 78.5308 132.329 79.2316C104.421 80.3859 95.929 87.5587 93.8266 90.0321Z" fill="#C96DA5" stroke="black" stroke-width="7" stroke-miterlimit="10"/>
<path d="M234.068 201.664C247.227 201.664 257.895 196.774 257.895 190.74C257.895 184.707 247.227 179.816 234.068 179.816C220.909 179.816 210.241 184.707 210.241 190.74C210.241 196.774 220.909 201.664 234.068 201.664Z" fill="#E3BAD7"/>
</g>
<defs>
<filter id="filter0_d" x="0.5" y="0.49707" width="301.001" height="260.28" filterUnits="userSpaceOnUse" color-interpolation-filters="sRGB">
<feFlood flood-opacity="0" result="BackgroundImageFix"/>
<feColorMatrix in="SourceAlpha" type="matrix" values="0 0 0 0 0 0 0 0 0 0 0 0 0 0 0 0 0 0 127 0"/>
<feOffset dy="4"/>
<feGaussianBlur stdDeviation="2"/>
<feColorMatrix type="matrix" values="0 0 0 0 0 0 0 0 0 0 0 0 0 0 0 0 0 0 0.25 0"/>
<feBlend mode="normal" in2="BackgroundImageFix" result="effect1_dropShadow"/>
<feBlend mode="normal" in="SourceGraphic" in2="effect1_dropShadow" result="shape"/>
</filter>
</defs>
</svg>
